<svg xmlns="http://www.w3.org/2000/svg" version="1.1" xmlns:xlink="http://www.w3.org/1999/xlink" xmlns:svgjs="http://svgjs.dev/svgjs" width="148" height="148"><svg width="148" height="148" viewBox="0 0 148 148" fill="none" xmlns="http://www.w3.org/2000/svg">
<rect width="148" height="148" fill="white"></rect>
<path d="M23.5734 84.2723V63.3557C23.5734 62.4907 23.4937 61.8435 23.3342 61.414C23.1747 60.9846 22.8618 60.6687 22.3956 60.4662C21.9293 60.2638 21.2299 60.1441 20.2974 60.1073V58.7546C22.4876 58.8834 24.3832 58.9478 25.9844 58.9478C27.6285 58.9478 29.5518 58.8834 31.7542 58.7546V60.1073C30.8953 60.1748 30.2604 60.2944 29.8493 60.4662C29.4444 60.638 29.1622 60.9324 29.0027 61.3496C28.8494 61.7668 28.7727 62.4109 28.7727 63.2821V80.0117C28.7727 82.2141 28.5733 84.0545 28.1745 85.5331C27.7758 87.0176 26.8433 88.1067 25.3771 88.8C24.2237 89.3766 22.8679 89.6647 21.3097 89.6647C19.825 89.6647 18.595 89.3766 17.6196 88.8C17.1288 88.5237 16.7362 88.1495 16.4417 87.6773C16.1472 87.2048 16 86.7355 16 86.2692C16 85.797 16.1595 85.3829 16.4785 85.027C16.8037 84.6772 17.2454 84.4748 17.8036 84.4196C17.8282 84.4196 17.8681 84.4134 17.9233 84.4013C17.9785 84.3889 18.0153 84.3827 18.0337 84.3827C18.6288 84.3827 19.0521 84.5515 19.3036 84.8888C19.5613 85.2262 19.8159 85.7356 20.0674 86.4165C20.325 87.0973 20.5766 87.5391 20.822 87.7416C21.0367 87.9196 21.2882 88.0084 21.5766 88.0084C22.0489 88.0084 22.463 87.855 22.8188 87.5483C23.3219 87.082 23.5734 86.1925 23.5734 84.8797V84.2723ZM40.8276 72.3647H46.8551L43.9931 64.7452L40.8276 72.3647ZM41.619 80.8031C39.9012 80.754 38.5945 80.7295 37.6988 80.7295C36.8645 80.7295 35.5701 80.754 33.8155 80.8031V79.4872C35.3247 79.3031 36.4044 78.4473 37.0547 76.9198L44.9317 58.3773H46.5514L53.9041 76.883C54.0266 77.0118 54.1892 77.3185 54.3916 77.8032C54.5941 78.2817 54.8854 78.6621 55.2658 78.9443C55.6524 79.2203 56.3026 79.4013 57.2167 79.4872V80.8031C54.456 80.754 52.3826 80.7295 50.9961 80.7295C49.8427 80.7295 48.1616 80.754 45.9531 80.8031V79.4872C46.7999 79.4504 47.4716 79.3737 47.9686 79.2571C48.4653 79.1406 48.723 78.84 48.7416 78.3553V78.1253C48.7416 77.751 48.6678 77.3185 48.5208 76.8277C48.3735 76.3308 48.2109 75.8585 48.0329 75.4106C47.855 74.9566 47.6617 74.4689 47.4533 73.9475H40.1466C39.889 74.5487 39.6712 75.0578 39.4933 75.475C39.3215 75.8922 39.1804 76.2879 39.07 76.6621C38.9595 77.0302 38.9043 77.3676 38.9043 77.6743C38.9043 78.8154 39.8092 79.4197 41.619 79.4872V80.8031ZM58.9836 80.7295H60.6399C60.7196 79.5025 60.7595 78.3461 60.7595 77.2603C60.7595 76.1867 60.7196 75.018 60.6399 73.7542H62.1493C62.5787 75.472 63.2504 76.883 64.1644 77.9872C65.0785 79.0854 66.29 79.6344 67.7993 79.6344C68.1798 79.6344 68.4587 79.6221 68.6366 79.5976C69.6244 79.4933 70.4157 79.1068 71.011 78.4381C71.6122 77.7694 71.9126 77.0118 71.9126 76.1652C71.9126 75.0732 71.4466 74.156 70.514 73.4137C69.8452 72.9107 68.8515 72.3739 67.5325 71.8033C66.2195 71.2328 65.2104 70.7543 64.505 70.3678C63.7994 69.9813 63.1153 69.4016 62.4529 68.6286C61.4713 67.4936 60.9805 66.1133 60.9805 64.4876C60.9805 63.0827 61.3456 61.8619 62.0755 60.8251C63.3454 59.1441 65.2688 58.3037 67.8454 58.3037C69.6979 58.3037 71.3944 58.8681 72.9341 59.9969L73.3482 58.6073H74.8941C74.8941 60.6257 74.931 62.6717 75.0048 64.7452H73.5323C73.0046 62.8066 72.1243 61.4386 70.8912 60.641C70.112 60.1625 69.1705 59.9233 68.0661 59.9233C67.6674 59.9233 67.3669 59.9355 67.1645 59.9601C66.465 60.1073 65.8945 60.4447 65.4527 60.9723C65.0112 61.4999 64.7901 62.1165 64.7901 62.822C64.7901 64.0121 65.5817 64.9814 67.1645 65.7299C67.9988 66.098 68.7931 66.4446 69.5477 66.7697C70.3024 67.0949 71.0323 67.4476 71.7379 67.828C72.4495 68.2083 73.1029 68.6347 73.6979 69.1071C74.2991 69.5795 74.8082 70.1255 75.2255 70.7451C75.9309 71.7573 76.2839 72.9628 76.2839 74.3616C76.2839 75.4904 76.02 76.5824 75.4923 77.6375C74.8298 78.84 73.8576 79.7387 72.5752 80.3338C71.2931 80.9227 69.9158 81.2172 68.4436 81.2172H68.2963C67.1123 81.2172 66.0908 81.0577 65.2319 80.7387C64.3731 80.4197 63.4836 79.889 62.5633 79.1467L62.1859 80.7295H58.9836ZM104.617 69.7604C104.617 71.3923 104.292 72.9291 103.642 74.3707C102.992 75.8063 102.09 77.0639 100.937 78.1437C99.7831 79.2234 98.458 80.0639 96.9611 80.6651C95.4641 81.2601 93.9091 81.5577 92.2956 81.5577C90.6638 81.5577 89.0901 81.2786 87.5749 80.7203C86.0658 80.1559 84.7191 79.3584 83.5351 78.3277C82.351 77.2909 81.4216 76.067 80.7469 74.656C80.0781 73.245 79.7438 71.7267 79.7438 70.1009C79.7438 67.9292 80.2898 65.9139 81.3818 64.0551C82.4738 62.1901 83.9553 60.7147 85.8265 59.6288C87.6976 58.5429 89.7406 58 91.9553 58C93.5685 58 95.1359 58.2883 96.6574 58.865C98.185 59.4355 99.547 60.2484 100.743 61.3036C101.94 62.3588 102.884 63.6134 103.578 65.0673C104.271 66.5213 104.617 68.0856 104.617 69.7604ZM87.3172 62.0674C86.1638 63.6134 85.5871 66.0274 85.5871 69.3095C85.5871 69.3831 85.5933 69.4874 85.6057 69.6224C85.6178 69.7574 85.624 69.8525 85.624 69.9077C85.624 71.607 85.8111 73.1837 86.1854 74.6376C86.5596 76.0916 87.2405 77.294 88.2283 78.2449C89.222 79.1958 90.5655 79.6712 92.2589 79.6712C94.7496 79.6712 96.4274 78.7418 97.2925 76.883C98.1575 75.0241 98.6023 72.6622 98.6268 69.7972C98.6268 67.374 98.2372 65.236 97.4581 63.3833C96.6851 61.5245 95.2924 60.4079 93.2804 60.0337C92.8693 59.9601 92.4154 59.9233 91.9184 59.9233C90.9919 59.9233 90.1269 60.1042 89.3233 60.4662C88.5196 60.822 87.8508 61.3558 87.3172 62.0674ZM108.013 80.8399V79.4872C108.866 79.3522 109.504 79.1406 109.927 78.8522C110.357 78.5639 110.642 78.1651 110.783 77.656C110.924 77.1468 110.994 76.4382 110.994 75.5302V61.7729C110.467 61.1042 110.01 60.6687 109.624 60.4662C109.243 60.2576 108.645 60.1257 107.829 60.0705V58.7914C109.265 58.8957 110.295 58.9478 110.921 58.9478C111.718 58.9478 112.998 58.8957 114.758 58.7914L127.807 73.7174V63.917C127.789 62.598 127.583 61.6441 127.191 61.0551C126.804 60.4662 125.991 60.138 124.752 60.0705V58.7914C125.04 58.7975 125.439 58.8098 125.948 58.8282C126.463 58.8466 126.976 58.865 127.485 58.8834C127.994 58.8957 128.39 58.9018 128.672 58.9018C128.942 58.9018 129.331 58.8957 129.841 58.8834C130.35 58.865 130.856 58.8466 131.359 58.8282C131.862 58.8098 132.261 58.7975 132.555 58.7914V60.0705C131.347 60.1196 130.54 60.4723 130.135 61.1288C129.736 61.7852 129.537 62.779 129.537 64.1103V81.2172H127.687L112.798 63.8434V75.5302C112.829 76.7756 113.053 77.7357 113.47 78.4105C113.893 79.0792 114.675 79.4381 115.817 79.4872V80.8031C113.853 80.754 112.347 80.7295 111.298 80.7295C110.206 80.7295 109.111 80.7663 108.013 80.8399Z" fill="#070707"></path>
</svg><style>@media (prefers-color-scheme: light) { :root { filter: none; } }
@media (prefers-color-scheme: dark) { :root { filter: none; } }
</style></svg>